<svg id="_001-piggy-bank" data-name="001-piggy-bank" xmlns="http://www.w3.org/2000/svg" width="48.333" height="48.331" viewBox="0 0 48.333 48.331">
  <path id="Path_22" data-name="Path 22" d="M37.8,14.658c-.322-.157-.666-.311-1.021-.462A9.663,9.663,0,1,0,19.32,13.6c-.513.194-1.016.409-1.511.639-1.976-1.808-5.075-2.034-6.388-2.041a1.615,1.615,0,0,0-1.6,1.352,12.35,12.35,0,0,0-.143,2.294,13.975,13.975,0,0,0-1.924.241,1.617,1.617,0,0,0-1.307,1.644,9.894,9.894,0,0,0,1.2,4.509c-.092.1-.185.2-.276.306-.514.574-1.046,1.166-1.589,1.714a6.492,6.492,0,0,1-3.609,1.331A2.5,2.5,0,0,0,.05,28.572l1.309,6.587c.1.555.631,1,1.58,1.61l.113.074a10.267,10.267,0,0,0,2.281,1.1,12.44,12.44,0,0,1,1.48.639,8.479,8.479,0,0,1,2.8,2.44c.134.188.276.367.433.55A10.487,10.487,0,0,0,15.3,44.542v1.478a2.416,2.416,0,0,0,2.415,2.415h5.637a2.416,2.416,0,0,0,2.416-2.415v-.1c.674.031,1.347.063,2.027.086.369.013.736.018,1.1.018.58,0,1.146-.021,1.706-.052v.051a2.416,2.416,0,0,0,2.415,2.415h5.637a2.416,2.416,0,0,0,2.416-2.415V42.9a15.117,15.117,0,0,0,7.247-12.111c.31-6.57-3.819-12.9-10.518-16.134ZM28.186,1.733A8.038,8.038,0,0,1,31.7,17.011a26.59,26.59,0,0,0-7.915-.5,8.04,8.04,0,0,1,4.4-14.779ZM11.416,13.811a9.216,9.216,0,0,1,4.814,1.241c-.768.436-1.543.94-2.314,1.484a7.714,7.714,0,0,0-2.63-.667,10.183,10.183,0,0,1,.13-2.058ZM8.065,17.667a12.1,12.1,0,0,1,2.438-.231c.014,0,.027.007.04.007a.425.425,0,0,0,.075-.005,5,5,0,0,1,4.026,1.691,2.415,2.415,0,0,1,.483,2.621,3.642,3.642,0,0,1-3.061,1.724c-1.8,0-3.816-1.818-4.01-5.807ZM46.706,30.715a13.419,13.419,0,0,1-5.678,10.268.794.794,0,0,0-.763-.6.805.805,0,0,0-.805.805v4.832a.805.805,0,0,1-.805.805H33.017a.805.805,0,0,1-.805-.805V43.6a.805.805,0,0,0-1.61,0v.745c-.892.053-1.809.08-2.752.044-.7-.023-1.388-.055-2.08-.087v-.7a.805.805,0,0,0-1.611,0v2.416a.805.805,0,0,1-.805.805H17.718a.805.805,0,0,1-.805-.805V41.994a.805.805,0,1,0-1.61,0v.867a8.337,8.337,0,0,1-4.034-2.342c-.122-.143-.237-.286-.35-.445a10.1,10.1,0,0,0-3.346-2.912,13.843,13.843,0,0,0-1.666-.725,8.937,8.937,0,0,1-1.945-.926l-.146-.1a5.5,5.5,0,0,1-.9-.663l-1.288-6.5a.892.892,0,0,1,.15-.7.873.873,0,0,1,.6-.363A8.15,8.15,0,0,0,6.92,25.393c.571-.577,1.117-1.185,1.643-1.771l.067-.075a4.852,4.852,0,0,0,3.436,1.538,5.228,5.228,0,0,0,4.5-2.618,4,4,0,0,0-.639-4.308,5.079,5.079,0,0,0-.591-.649c.586-.4,1.171-.77,1.751-1.1A20.49,20.49,0,0,1,20.1,15.044a9.73,9.73,0,0,0,1.429,1.718c-.908.136-1.483.265-1.58.286a.806.806,0,0,0,.362,1.57c.1-.024,10.185-2.271,16.245,2.275a.805.805,0,0,0,.966-1.289,14.363,14.363,0,0,0-3.735-1.982,9.553,9.553,0,0,0,2.1-2.054c.424.177.828.353,1.2.535,6.119,2.954,9.891,8.688,9.61,14.611Zm0,0" transform="translate(0.001 -0.105)" fill="#fff"/>
</svg>
