<svg id="_002-check" data-name="002-check" xmlns="http://www.w3.org/2000/svg" width="48.314" height="48.312" viewBox="0 0 48.314 48.312">
  <path id="Path_23" data-name="Path 23" d="M48.3,21.647a.69.69,0,0,0-.032-.133.673.673,0,0,0-.027-.1.59.59,0,0,0-.038-.062c-.01-.017-.011-.036-.021-.052s-.039-.036-.056-.058a.8.8,0,0,0-.066-.08c-.006-.006-.008-.013-.014-.018L24.694.207a.805.805,0,0,0-1.076,0L20,3.453,15.374.407a2.42,2.42,0,0,0-3.348.687l-1.772,2.69L.4,18.751a2.389,2.389,0,0,0-.35,1.817,2.452,2.452,0,0,0,.213.585A.794.794,0,0,0,0,21.741V45.092a3.2,3.2,0,0,0,1.083,2.391.769.769,0,0,0,.107.088,3.184,3.184,0,0,0,2.031.742H45.092a3.186,3.186,0,0,0,2.008-.725.754.754,0,0,0,.138-.114,3.2,3.2,0,0,0,1.075-2.383V21.741c0-.007,0-.014,0-.021a.687.687,0,0,0-.01-.073ZM1.61,45.092V22.546h.156l17.8,11.714L1.826,45.882a1.587,1.587,0,0,1-.216-.79Zm22.1-11.631a.8.8,0,0,1,.885,0L44.8,46.7H3.511Zm5.6,1.163,4.82-3.158.022-.014L46.7,23.231V45.092a1.587,1.587,0,0,1-.216.79Zm1.449-2.874-2.934-1.933.88-1.347,3.524,2.32Zm-6.6-29.864,18.069,16.2L21.39,4.369Zm-10.79.1a.8.8,0,0,1,1.117-.232L45.444,22.131l-2.936,1.924L12.042,4ZM1.743,19.639l9.413-14.3L41.04,25.016,36.632,27.9,30.7,24a.805.805,0,1,0-.886,1.345l5.355,3.53-1.467.961-4.107-2.706a1.61,1.61,0,0,0-2.225.459l-.883,1.34a1.6,1.6,0,0,0,.45,2.234l2.359,1.555-1.449.95-2.359-1.546a2.416,2.416,0,0,0-2.657,0l-1.8,1.183L2.449,21.069l-.474-.314a.806.806,0,0,1-.348-.514.792.792,0,0,1,.116-.6Zm0,0" transform="translate(0 -0.002)" fill="#fff"/>
  <path id="Path_25" data-name="Path 25" d="M176.973,165.131l9.416,6.2a.805.805,0,1,0,.885-1.345l-9.416-6.2a.805.805,0,0,0-.886,1.345Zm0,0" transform="translate(-159.945 -148.21)" fill="#fff"/>
  <path id="Path_26" data-name="Path 26" d="M149.737,227l-9.415-6.2a.805.805,0,1,0-.886,1.345l9.415,6.2a.805.805,0,0,0,.886-1.345Zm0,0" transform="translate(-125.95 -199.84)" fill="#fff"/>
</svg>
