<svg xmlns="http://www.w3.org/2000/svg" width="43" height="43.018" viewBox="0 0 43 43.018">
  <g id="search" transform="translate(-0.434 0)">
    <path id="Path_38" data-name="Path 38" d="M155.815,369.313a4.3,4.3,0,0,0-4.3,4.3.717.717,0,0,0,1.433,0,2.866,2.866,0,0,1,2.866-2.866.717.717,0,0,0,0-1.433Zm0,0" transform="translate(-138.183 -337.783)" fill="#fff"/>
    <path id="Path_39" data-name="Path 39" d="M374.045,369.313a4.3,4.3,0,0,0-4.3,4.3.717.717,0,0,0,1.433,0,2.866,2.866,0,0,1,2.866-2.866.717.717,0,0,0,0-1.433Zm0,0" transform="translate(-337.782 -337.783)" fill="#fff"/>
    <path id="Path_40" data-name="Path 40" d="M38.09,22.9a4.843,4.843,0,0,0-.411-.88l-.05-.107a.709.709,0,0,0-.156-.215A5.4,5.4,0,0,0,34.83,19.66V17.914a3.587,3.587,0,0,0-3.583-3.583,3.546,3.546,0,0,0-2.15.735V2.149A2.15,2.15,0,0,0,26.947,0H2.584a2.15,2.15,0,0,0-2.15,2.15V37.979a2.15,2.15,0,0,0,2.15,2.15h9.329a7.154,7.154,0,0,0,12.88-4.2c.069-.293.587-2.251,2.155-2.251s2.078,1.926,2.155,2.249A7.166,7.166,0,1,0,42.431,32.2ZM2.584,38.7a.717.717,0,0,1-.717-.717V2.149a.717.717,0,0,1,.717-.717H26.947a.717.717,0,0,1,.717.717v17.2H26.231V17.914a3.583,3.583,0,1,0-7.166,0V19.66a5.386,5.386,0,0,0-2.643,2.04.721.721,0,0,0-.156.21l-.056.119a4.871,4.871,0,0,0-.4.867l-4.336,9.3a7.107,7.107,0,0,0-.4,6.5Zm15.048,2.866a5.721,5.721,0,0,1-5.209-8.113.719.719,0,0,0,.125-.183l.191-.41a5.733,5.733,0,1,1,4.892,8.706Zm9.315-9.316a3.049,3.049,0,0,0-1.657.478l.926-4.634a.717.717,0,1,0-1.4-.281L23.9,32.367a7.147,7.147,0,0,0-9.587-2.881l3.175-6.8a3.942,3.942,0,0,1,2.485-1.8.716.716,0,0,0,.539-.86c0-.009-.008-.014-.011-.023V17.914a2.15,2.15,0,0,1,4.3,0V21.08a5.41,5.41,0,0,0-1.185-.977.591.591,0,0,0-.072-.031.419.419,0,0,0-.047-.02A.744.744,0,0,0,23.241,20a.717.717,0,0,0-.717.717.553.553,0,0,0,.012.055.685.685,0,0,0,.036.177.767.767,0,0,0,.04.093.745.745,0,0,0,.085.125.646.646,0,0,0,.067.072.679.679,0,0,0,.137.1,3.958,3.958,0,0,1,1.891,3.073.716.716,0,0,0,.716.664h.055A10.244,10.244,0,0,1,25.832,25l.006,0a.711.711,0,0,0,.393-.633V20.781h1.433v3.583a.71.71,0,0,0,.4.633l.006.005a.69.69,0,0,0,.2.055.655.655,0,0,0,.072.021h.054a.717.717,0,0,0,.717-.664,3.956,3.956,0,0,1,1.863-3.055.722.722,0,0,0,.18-.129c.014-.014.024-.029.036-.044a.687.687,0,0,0,.107-.16.537.537,0,0,0,.029-.063.7.7,0,0,0-.913-.916.629.629,0,0,0-.064.027c-.02.008-.04.016-.06.026a5.4,5.4,0,0,0-1.191.979V17.914a2.15,2.15,0,0,1,4.3,0v2.279a.585.585,0,0,0,.012.059.823.823,0,0,0,.075.268.715.715,0,0,0,.072.112.648.648,0,0,0,.093.1.627.627,0,0,0,.11.072.62.62,0,0,0,.132.061.473.473,0,0,0,.054.025,3.953,3.953,0,0,1,2.463,1.8l3.17,6.794a7.147,7.147,0,0,0-9.587,2.881L29.083,27.8a.717.717,0,1,0-1.4.281L28.6,32.72a3.05,3.05,0,0,0-1.657-.475Zm9.316,9.316a5.733,5.733,0,1,1,4.892-8.706l.191.41a.71.71,0,0,0,.125.183,5.722,5.722,0,0,1-5.209,8.113Zm0,0" transform="translate(0 0)" fill="#fff"/>
    <path id="Path_41" data-name="Path 41" d="M41.173,60.088a.717.717,0,0,0,0-1.433H39.74V56.5h2.866a.717.717,0,1,0,0-1.433H39.74v-2.15h5.016a.717.717,0,1,0,0-1.433H39.74v-2.15h7.882a.717.717,0,0,0,0-1.433H39.74v-2.15h8.6a.717.717,0,0,0,0-1.433h-8.6v-2.15H55.5v.716a.717.717,0,1,0,1.433,0v-8.6a.717.717,0,0,0-.716-.717h-21.5a.717.717,0,0,0-.717.717V67.254a.717.717,0,0,0,.717.717h4.3a.717.717,0,0,0,.717-.717V60.088Zm-2.866-1.433H35.44V56.5h2.866ZM35.44,38.59h2.866v2.15H35.44Zm2.866,16.482H35.44v-2.15h2.866Zm0-3.583H35.44v-2.15h2.866Zm0-3.583H35.44v-2.15h2.866Zm0-3.583H35.44v-2.15h2.866ZM39.74,40.74V38.59H55.5v2.15ZM55.5,37.157H39.74v-2.15H55.5Zm-17.2-2.15v2.15H35.44v-2.15ZM35.44,63.671h2.866v2.866H35.44Zm2.866-1.433H35.44v-2.15h2.866Zm0,0" transform="translate(-30.707 -30.708)" fill="#fff"/>
  </g>
</svg>
