<svg id="_004-check-1" data-name="004-check-1" xmlns="http://www.w3.org/2000/svg" width="48.314" height="48.318" viewBox="0 0 48.314 48.318">
  <path id="Path_29" data-name="Path 29" d="M45.921,19.33H39.479V16.109a.805.805,0,0,0,.805-.805V4.836A1.611,1.611,0,0,1,41.9,6.446V16.914a.805.805,0,0,0,1.61,0V6.446a3.221,3.221,0,0,0-3.221-3.221H40.2a4.026,4.026,0,0,0-7.972.805V15.3a.805.805,0,0,0,.805.805V19.33H2.439A2.416,2.416,0,0,0,.023,21.746V45.9a2.416,2.416,0,0,0,2.415,2.416H45.921A2.416,2.416,0,0,0,48.337,45.9V21.746a2.416,2.416,0,0,0-2.416-2.416Zm0,1.61a.806.806,0,0,1,.805.805v1.61H39.479V20.94ZM33.038,33.824H29.817a.805.805,0,0,1-.805-.805V29.8a.805.805,0,0,1,.805-.805h3.221Zm6.442-4.831H41.9a.805.805,0,0,1,.805.805v3.221a.805.805,0,0,1-.805.805H39.479ZM33.843,4.03a2.416,2.416,0,0,1,4.831,0V14.5H33.843Zm4.026,12.078V35.434H34.648V16.109Zm-.357,20.936-1.254,3.343L35,37.045ZM2.439,20.94h30.6v2.416H1.634v-1.61a.805.805,0,0,1,.805-.805ZM45.921,46.708H2.439a.805.805,0,0,1-.805-.805V24.966h31.4v2.416H29.817A2.416,2.416,0,0,0,27.4,29.8v3.221a2.416,2.416,0,0,0,2.416,2.416h3.221v.805c0,.01,0,.018.006.027a.8.8,0,0,0,.045.255L35.1,41.876H29.011a.805.805,0,1,0,0,1.61H43.506a.805.805,0,0,0,0-1.61H37.42l2.008-5.354a.791.791,0,0,0,.045-.255c0-.01.006-.018.006-.027v-.805H41.9a2.416,2.416,0,0,0,2.415-2.416V29.8A2.416,2.416,0,0,0,41.9,27.382H39.479V24.966h7.247V45.9a.806.806,0,0,1-.805.805Zm0,0" transform="translate(-0.023 0)" fill="#fff"/>
  <path id="Path_31" data-name="Path 31" d="M148.633,358.445H137.36a.805.805,0,1,0,0,1.61h11.273a.805.805,0,1,0,0-1.61Zm0,0" transform="translate(-123.671 -324.621)" fill="#fff"/>
  <path id="Path_32" data-name="Path 32" d="M148.633,401.113H137.36a.805.805,0,1,0,0,1.61h11.273a.805.805,0,1,0,0-1.61Zm0,0" transform="translate(-123.671 -363.263)" fill="#fff"/>
  <path id="Path_33" data-name="Path 33" d="M148.633,443.777H137.36a.805.805,0,1,0,0,1.61h11.273a.805.805,0,1,0,0-1.61Zm0,0" transform="translate(-123.671 -401.901)" fill="#fff"/>
</svg>
