<svg id="_003-presentation" data-name="003-presentation" xmlns="http://www.w3.org/2000/svg" width="48.314" height="48.318" viewBox="0 0 48.314 48.318">
  <path id="Path_27" data-name="Path 27" d="M48.336,6.442A2.416,2.416,0,0,0,45.92,4.026H27.4V3.221a3.221,3.221,0,0,0-6.442,0v.805H2.438a2.41,2.41,0,0,0-.805,4.683V34.77a2.309,2.309,0,0,0-.892.558,2.371,2.371,0,0,0-.718,1.712,2.416,2.416,0,0,0,2.416,2.415h13.5l-4.744,4.737a2.417,2.417,0,0,0,3.418,3.417l7.152-7.159V45.9a2.416,2.416,0,1,0,4.831,0V40.451l7.153,7.16a2.416,2.416,0,0,0,3.417-3.418l-4.743-4.737h13.5a2.41,2.41,0,0,0,.805-4.683V8.709a2.416,2.416,0,0,0,1.61-2.268ZM22.568,3.221a1.61,1.61,0,0,1,3.221,0v.805H22.568ZM2.438,5.637H45.92a.805.805,0,0,1,0,1.61H2.438a.805.805,0,1,1,0-1.61ZM45.115,34.625H3.243V8.858H45.115ZM13.469,46.472a.827.827,0,0,1-1.14,0,.8.8,0,0,1,0-1.139l5.886-5.877h2.265ZM24.984,45.9a.805.805,0,1,1-1.61,0V39.456h1.61Zm11.042-.564a.805.805,0,0,1,0,1.14.828.828,0,0,1-1.139,0l-7.009-7.019h2.265Zm10.453-7.718a.769.769,0,0,1-.559.23H2.438a.805.805,0,0,1-.805-.805.784.784,0,0,1,.247-.574.771.771,0,0,1,.559-.232H45.92a.805.805,0,0,1,.805.805.788.788,0,0,1-.246.573Zm0,0" transform="translate(-0.022 0)" fill="#fff"/>
  <path id="Path_28" data-name="Path 28" d="M77.629,140.4h32.209a.805.805,0,0,0,.805-.805v-18.52a.805.805,0,0,0-.805-.805h-3.221a.805.805,0,0,0-.805.805v17.715H104.2V124.3a.805.805,0,0,0-.805-.805h-3.221a.805.805,0,0,0-.805.805v14.494H97.76V126.711a.805.805,0,0,0-.805-.805H93.734a.805.805,0,0,0-.805.805v12.078h-1.61v-9.663a.806.806,0,0,0-.805-.805H87.292a.805.805,0,0,0-.805.805v9.663h-1.61v-7.247a.805.805,0,0,0-.805-.805H80.851a.805.805,0,0,0-.805.805v7.247h-1.61v-18.52a.805.805,0,1,0-1.61,0v19.326a.805.805,0,0,0,.805.805Zm29.793-18.52h1.61v16.91h-1.61Zm-6.442,3.221h1.61v13.689h-1.61Zm-6.442,2.416h1.61v11.273h-1.61ZM88.1,129.932h1.61v8.858H88.1Zm-6.442,2.416h1.61v6.442h-1.61Zm0,0" transform="translate(-69.577 -108.191)" fill="#fff"/>
</svg>
