<svg xmlns="http://www.w3.org/2000/svg" width="43" height="43.008" viewBox="0 0 43 43.008">
  <path id="scale" d="M43,24.834l-3.426-8.905.918-.367a2.513,2.513,0,0,0-1.863-4.667l-1.091.437a12.838,12.838,0,0,0-3.544-2.753A22.1,22.1,0,0,0,28.372,6.5,29.127,29.127,0,0,0,24.3,5.874a3.583,3.583,0,1,0-5.518-.009,28.646,28.646,0,0,0-4.058.635A21.86,21.86,0,0,0,9.106,8.584a12.766,12.766,0,0,0-3.548,2.748l-1.09-.436a2.513,2.513,0,0,0-3.4,1.859,2.724,2.724,0,0,0-.047.484A2.48,2.48,0,0,0,2.6,15.56l.917.368L.094,24.834a.706.706,0,0,0-.022.133.64.64,0,0,0-.025.124v1.433a2.15,2.15,0,0,0,2.15,2.15H7.213a2.15,2.15,0,0,0,2.15-2.15V25.091a.671.671,0,0,0-.025-.125.722.722,0,0,0-.022-.133L5.9,15.947a2.2,2.2,0,0,0,.237-.163A23.8,23.8,0,0,1,19.4,10.848V20.923a2.15,2.15,0,0,0-1.433,2.018v3.583a2.15,2.15,0,0,0,2.15,2.15h.274l-1.481,2.96a2.162,2.162,0,0,0-.226.961v3.245H17.247a2.15,2.15,0,0,0-2.15,2.15v.716H12.23a2.15,2.15,0,0,0-2.15,2.15v1.433a.717.717,0,0,0,.716.716H32.3a.717.717,0,0,0,.717-.716V40.858a2.15,2.15,0,0,0-2.15-2.15H28v-.716a2.15,2.15,0,0,0-2.15-2.15H24.413V32.6a2.165,2.165,0,0,0-.226-.962l-1.481-2.96h.274a2.15,2.15,0,0,0,2.15-2.15V22.941A2.15,2.15,0,0,0,23.7,20.923V10.846a23.793,23.793,0,0,1,13.264,4.945,2.045,2.045,0,0,0,.235.161l-3.418,8.887a.706.706,0,0,0-.022.133.648.648,0,0,0-.025.12v1.433a2.15,2.15,0,0,0,2.15,2.15H40.9a2.15,2.15,0,0,0,2.15-2.15V25.091a.671.671,0,0,0-.025-.125A.7.7,0,0,0,43,24.834ZM31.58,40.858v.716H11.513v-.716a.717.717,0,0,1,.716-.717H30.863a.717.717,0,0,1,.717.717Zm-5.017-2.867v.716H16.53v-.716a.717.717,0,0,1,.716-.717h8.6a.717.717,0,0,1,.717.717ZM22.98,32.6v3.245H20.113V32.6a.715.715,0,0,1,.075-.321l1.358-2.715,1.362,2.715a.725.725,0,0,1,.072.321Zm18.307-8.222h-5.8l2.9-7.535ZM21.547,1.442a2.15,2.15,0,1,1-2.15,2.15,2.15,2.15,0,0,1,2.15-2.15ZM4.705,16.84l2.9,7.535h-5.8ZM7.93,26.525a.717.717,0,0,1-.716.717H2.2a.717.717,0,0,1-.717-.717v-.716H7.93Zm15.767,0a.717.717,0,0,1-.717.717H20.113a.717.717,0,0,1-.716-.717V22.941a.717.717,0,0,1,.716-.717H22.98a.717.717,0,0,1,.717.717Zm-1.433-5.733H20.83V10.776c.239-.007.473-.018.716-.018s.477.013.717.019Zm.727-11.429h-.019c-.466-.022-.938-.038-1.425-.038s-.99.015-1.468.037A25.409,25.409,0,0,0,5.225,14.676a.705.705,0,0,1-.713.1l-1.381-.554a1.071,1.071,0,0,1-.677-.988,1.243,1.243,0,0,1,.022-.215,1.081,1.081,0,0,1,1.461-.794l1.577.631a.718.718,0,0,0,.834-.229A10.845,10.845,0,0,1,9.793,9.838a20.411,20.411,0,0,1,5.259-1.947,27.7,27.7,0,0,1,5.093-.684c.463-.018.925-.033,1.4-.033a28.809,28.809,0,0,1,6.5.716A20.679,20.679,0,0,1,33.3,9.833a10.909,10.909,0,0,1,3.444,2.8.717.717,0,0,0,.833.229l1.577-.632a1.08,1.08,0,0,1,.8,2.007l-1.378.552a.709.709,0,0,1-.712-.1A25.381,25.381,0,0,0,22.991,9.363ZM41.613,26.525a.717.717,0,0,1-.716.717H35.88a.717.717,0,0,1-.717-.717v-.716h6.45Zm0,0" transform="translate(-0.047 0)" fill="#fff"/>
</svg>
