<svg xmlns="http://www.w3.org/2000/svg" width="177" height="42.32" viewBox="0 0 177 42.32">
  <g id="outhands-logo-zwart_12_" data-name="outhands-logo-zwart (12)" transform="translate(0.062 -0.1)">
    <path id="Path_1" data-name="Path 1" d="M35.468,8.373C33.931,8.019,33.34,11.8,33.34,11.8a8.007,8.007,0,0,1-.709,2.6,30.861,30.861,0,0,1-1.418,3.427,16.593,16.593,0,0,0-1.064,2.127c-.355,2.127-2.009.709-2.009.709-.236-.236.236-6.146.236-6.146.355-.827-.355-6.028-.355-6.028A25.9,25.9,0,0,0,27.9,5.064c-.236-3.427-2.364-2.6-2.364-2.6-2.127.355-1.182,4.609-1.182,4.609,0,.827.118,2.127.118,2.127a21.234,21.234,0,0,0-.355,3.664A18.454,18.454,0,0,0,23.531,17c-.118,2.364-.827,1.064-.827,1.064a59.461,59.461,0,0,0-1.064-6.146,35.794,35.794,0,0,0-.591-4.373,28.714,28.714,0,0,1-.473-3.9C21.049.927,19.276.1,19.276.1A2.442,2.442,0,0,0,17.03,2.818c-.236.236,0,4.137,0,4.137-.473.355.118,5.555.118,5.555-.355.236.591,4.609.591,4.609.355,2.246-.236,1.536-.236,1.536-.827.118-1.064-1.182-1.064-1.182-.118-.709-1.3-3.782-1.3-3.782a23.934,23.934,0,0,0-1.182-3.309,7.487,7.487,0,0,1-.473-2.246L13.366,6.6c-.591-4.727-2.955-3.073-2.955-3.073-1.3.473-.473,5.082-.473,5.082a6.617,6.617,0,0,1,.355,1.891,40.766,40.766,0,0,0,.827,4.609c0,.355.827,3.546.827,3.546a7.837,7.837,0,0,1,.473,1.891c-.236.236.355,3.309.355,3.309.236,2.009-1.891,3.664-1.891,3.664-.591.355-3.073-3.546-3.073-3.546a7.316,7.316,0,0,1-1.064-1.3c-2.6-4.609-5.673-3.546-5.673-3.546C-1.171,19.837.6,21.846.6,21.846a35.226,35.226,0,0,0,2.836,4.137c.709.709,3.427,5.082,3.427,5.082,2.127,4.609,7.682,9.573,7.682,9.573,1.655,2.009,6.028,1.773,6.028,1.773l2.955-.709a7.609,7.609,0,0,0,6.5-2.955,22.236,22.236,0,0,0,2.364-6.028c-.236-.473.591-8.509.591-8.509,0-.591,1.655-5.555,1.655-5.555.236-.709,1.3-4.373,1.3-4.373C37.949,8.491,35.468,8.373,35.468,8.373Z" transform="translate(0 0)" fill="#fff" fill-rule="evenodd"/>
    <g id="Group_1" data-name="Group 1" transform="translate(58.041 11.795)">
      <path id="Path_2" data-name="Path 2" d="M64.228,20.755c0,7.209-2.482,10.873-7.564,10.873a6.642,6.642,0,0,1-5.673-2.718c-1.3-1.891-1.891-4.491-1.891-8.037C49.1,13.664,51.582,10,56.664,10a6.642,6.642,0,0,1,5.673,2.718C63.519,14.491,64.228,17.091,64.228,20.755Zm-4.846,0q0-4.255-.709-5.673a2.3,2.3,0,0,0-4.255,0q-.709,1.418-.709,5.673a15.6,15.6,0,0,0,.709,5.673,2.3,2.3,0,0,0,4.255,0Q59.382,25.01,59.382,20.755Z" transform="translate(-49.1 -9.994)" fill="#fff"/>
      <path id="Path_3" data-name="Path 3" d="M63,10.2h4.609V22.255a22.407,22.407,0,0,0,.236,3.546,2.311,2.311,0,0,0,.946,1.536,2.848,2.848,0,0,0,1.773.473,3.007,3.007,0,0,0,1.891-.591,2.2,2.2,0,0,0,.827-1.536,25.022,25.022,0,0,0,.118-3.546V10.2h3.9V22.019a29.371,29.371,0,0,1-.355,5.318,4.7,4.7,0,0,1-2.127,2.955,7.379,7.379,0,0,1-4.609,1.3,8.4,8.4,0,0,1-4.255-.945,4.876,4.876,0,0,1-2.246-2.6A16.361,16.361,0,0,1,63,22.255V10.2Z" transform="translate(-46.572 -9.958)" fill="#fff"/>
      <path id="Path_4" data-name="Path 4" d="M74.9,10.2H88.019v3.9H83.764V31.237H79.155V14.1H75.018V10.2Z" transform="translate(-44.408 -9.958)" fill="#fff"/>
      <path id="Path_5" data-name="Path 5" d="M85.7,10.2h4.609v8.509h5.082V10.2H100V31.237H95.391V22.61H90.309v8.628H85.7Z" transform="translate(-42.443 -9.958)" fill="#fff"/>
      <path id="Path_6" data-name="Path 6" d="M103.664,10.2h4.609L114.3,31.237h-4.727l-1.064-4.373H102.6l-.945,4.373H97.4Zm4.018,13.119-2.127-8.628-2.009,8.628Z" transform="translate(-40.316 -9.958)" fill="#fff"/>
      <path id="Path_7" data-name="Path 7" d="M111.5,10.2h5.082l5.437,13v-13h3.546V31.237h-4.137l-6.382-15.246V31.237H111.5Z" transform="translate(-37.751 -9.958)" fill="#fff"/>
      <path id="Path_8" data-name="Path 8" d="M125,10.2h4.964a12.951,12.951,0,0,1,5.2.827,6.442,6.442,0,0,1,3.191,3.191,13.663,13.663,0,0,1,1.182,6.382,17.037,17.037,0,0,1-.709,5.082,10.4,10.4,0,0,1-1.891,3.427,5.492,5.492,0,0,1-2.718,1.655,16.448,16.448,0,0,1-3.782.473H125Zm4.609,3.664V27.692h.827a4.8,4.8,0,0,0,2.482-.591,4.209,4.209,0,0,0,1.418-2.127,14.8,14.8,0,0,0,.473-4.491,12.29,12.29,0,0,0-.591-4.137,3.837,3.837,0,0,0-1.418-2.009,4.687,4.687,0,0,0-2.364-.473h-.827Z" transform="translate(-35.296 -9.958)" fill="#fff"/>
      <path id="Path_9" data-name="Path 9" d="M151.5,14.847l-3.782,1.418c-.591-1.773-1.536-2.6-2.955-2.6a2.562,2.562,0,0,0-1.655.591,1.9,1.9,0,0,0-.591,1.3,1.685,1.685,0,0,0,.709,1.418,13.682,13.682,0,0,0,2.955,1.418,13.394,13.394,0,0,1,3.191,1.536,5.157,5.157,0,0,1,1.891,2.009,5.757,5.757,0,0,1,.709,2.955,6.5,6.5,0,0,1-2.009,4.846,7.443,7.443,0,0,1-5.437,1.891c-3.782,0-6.264-1.891-7.328-5.791l4.018-1.182c.473,2.127,1.655,3.191,3.427,3.191a3.007,3.007,0,0,0,1.891-.591,2.146,2.146,0,0,0,.709-1.655,2.271,2.271,0,0,0-.473-1.418,7.892,7.892,0,0,0-2.364-1.3,18.075,18.075,0,0,1-3.546-1.536,6.516,6.516,0,0,1-2.009-2.009,6.141,6.141,0,0,1-.827-2.955,6.235,6.235,0,0,1,1.773-4.609A6.61,6.61,0,0,1,144.646,10C148.31,9.883,150.555,11.537,151.5,14.847Z" transform="translate(-33.077 -9.995)" fill="#fff"/>
    </g>
  </g>
</svg>
