<svg xmlns="http://www.w3.org/2000/svg" width="415.152" height="477.583" viewBox="0 0 415.152 477.583">
  <path id="Hand" d="M400.9,93.463c-17.339-4-24.008,38.679-24.008,38.679,0,12-8,29.343-8,29.343-2.668,10.67-16.005,38.679-16.005,38.679-5.335,8-12,24.008-12,24.008-4,24.008-22.674,8-22.674,8-2.668-2.668,2.668-69.356,2.668-69.356,4-9.336-4-68.022-4-68.022,1.334-9.336-1.334-38.679-1.334-38.679-2.668-38.679-26.675-29.343-26.675-29.343-24.008,4-13.338,52.017-13.338,52.017,0,9.336,1.334,24.008,1.334,24.008-2.668,2.668-4,41.347-4,41.347-5.335,13.338-6.669,46.682-6.669,46.682-1.334,26.675-9.336,12-9.336,12,1.334-6.669-12-69.356-12-69.356,1.334-5.335-6.669-49.349-6.669-49.349-2.667-5.335-5.335-44.014-5.335-44.014C238.178,9.436,218.171.1,218.171.1,190.162,2.768,192.83,30.776,192.83,30.776c-2.668,2.668,0,46.682,0,46.682-5.335,4,1.334,62.687,1.334,62.687-4,2.668,6.669,52.017,6.669,52.017,4,25.341-2.668,17.339-2.668,17.339-9.336,1.334-12-13.338-12-13.338-1.334-8-14.671-42.68-14.671-42.68-1.334-9.336-13.338-37.345-13.338-37.345-4-6.669-5.335-25.341-5.335-25.341l-1.334-17.339c-6.669-53.35-33.344-34.678-33.344-34.678-14.671,5.335-5.335,57.352-5.335,57.352a74.675,74.675,0,0,1,4,21.34c-1.334,4,9.336,52.017,9.336,52.017,0,4,9.336,40.013,9.336,40.013,4,9.336,5.335,21.34,5.335,21.34-2.668,2.668,4,37.345,4,37.345,2.668,22.674-21.34,41.347-21.34,41.347-6.669,4-34.678-40.013-34.678-40.013-4-2.668-12-14.671-12-14.671-29.343-52.017-64.02-40.013-64.02-40.013-25.341,8-5.335,30.676-5.335,30.676,1.334,6.669,32.01,46.682,32.01,46.682,8,8,38.679,57.352,38.679,57.352,24.008,52.017,86.694,108.035,86.694,108.035,18.673,22.674,68.022,20.006,68.022,20.006l33.344-8c50.683,1.334,73.357-33.344,73.357-33.344,17.339-26.675,26.675-68.022,26.675-68.022-2.668-5.335,6.669-96.031,6.669-96.031,0-6.669,18.673-62.687,18.673-62.687,2.668-8,14.671-49.349,14.671-49.349C428.905,94.8,400.9,93.463,400.9,93.463Z" transform="translate(0.062 -0.1)" fill="#fff" fill-rule="evenodd" opacity="0.1"/>
</svg>
