<svg xmlns="http://www.w3.org/2000/svg" width="174" height="41.602" viewBox="0 0 174 41.602">
  <g id="outhands-logo-zwart_12_" data-name="outhands-logo-zwart (12)" transform="translate(0.062 -0.1)">
    <path id="Path_1" data-name="Path 1" d="M34.865,8.233c-1.51-.349-2.091,3.369-2.091,3.369a7.871,7.871,0,0,1-.7,2.556,30.338,30.338,0,0,1-1.394,3.369,16.312,16.312,0,0,0-1.046,2.091c-.349,2.091-1.975.7-1.975.7-.232-.232.232-6.042.232-6.042.349-.813-.349-5.925-.349-5.925A25.462,25.462,0,0,0,27.43,4.98C27.2,1.61,25.106,2.424,25.106,2.424c-2.091.349-1.162,4.531-1.162,4.531,0,.813.116,2.091.116,2.091a20.874,20.874,0,0,0-.349,3.6,18.141,18.141,0,0,0-.581,4.066c-.116,2.324-.813,1.046-.813,1.046a58.453,58.453,0,0,0-1.046-6.042,35.187,35.187,0,0,0-.581-4.3,28.228,28.228,0,0,1-.465-3.834C20.691.913,18.948.1,18.948.1a2.4,2.4,0,0,0-2.207,2.672c-.232.232,0,4.066,0,4.066-.465.349.116,5.461.116,5.461-.349.232.581,4.531.581,4.531.349,2.207-.232,1.51-.232,1.51-.813.116-1.046-1.162-1.046-1.162-.116-.7-1.278-3.718-1.278-3.718a23.528,23.528,0,0,0-1.162-3.253A7.36,7.36,0,0,1,13.255,8l-.116-1.51c-.581-4.647-2.9-3.021-2.9-3.021-1.278.465-.465,5-.465,5a6.5,6.5,0,0,1,.349,1.859,40.076,40.076,0,0,0,.813,4.531c0,.349.813,3.486.813,3.486a7.7,7.7,0,0,1,.465,1.859c-.232.232.349,3.253.349,3.253.232,1.975-1.859,3.6-1.859,3.6-.581.349-3.021-3.486-3.021-3.486a7.192,7.192,0,0,1-1.046-1.278c-2.556-4.531-5.577-3.486-5.577-3.486-2.207.7-.465,2.672-.465,2.672a34.629,34.629,0,0,0,2.788,4.066c.7.7,3.369,5,3.369,5C8.84,35.071,14.3,39.951,14.3,39.951c1.627,1.975,5.925,1.743,5.925,1.743l2.9-.7a7.48,7.48,0,0,0,6.39-2.9,21.859,21.859,0,0,0,2.324-5.925c-.232-.465.581-8.365.581-8.365,0-.581,1.627-5.461,1.627-5.461.232-.7,1.278-4.3,1.278-4.3C37.305,8.349,34.865,8.233,34.865,8.233Z" transform="translate(0 0)" fill="#fc0" fill-rule="evenodd"/>
    <g id="Group_1" data-name="Group 1" transform="translate(57.056 11.596)">
      <path id="Path_2" data-name="Path 2" d="M63.972,20.573c0,7.087-2.44,10.689-7.436,10.689a6.529,6.529,0,0,1-5.577-2.672c-1.278-1.859-1.859-4.415-1.859-7.9C49.1,13.6,51.54,10,56.536,10a6.529,6.529,0,0,1,5.577,2.672C63.274,14.415,63.972,16.971,63.972,20.573Zm-4.764,0q0-4.183-.7-5.577a2.266,2.266,0,0,0-4.183,0q-.7,1.394-.7,5.577a15.334,15.334,0,0,0,.7,5.577,2.266,2.266,0,0,0,4.183,0Q59.208,24.755,59.208,20.573Z" transform="translate(-49.1 -9.994)" fill="#222"/>
      <path id="Path_3" data-name="Path 3" d="M63,10.2h4.531V22.051a22.027,22.027,0,0,0,.232,3.486,2.272,2.272,0,0,0,.929,1.51,2.8,2.8,0,0,0,1.743.465,2.956,2.956,0,0,0,1.859-.581,2.159,2.159,0,0,0,.813-1.51,24.6,24.6,0,0,0,.116-3.486V10.2h3.834V21.818a28.874,28.874,0,0,1-.349,5.228,4.625,4.625,0,0,1-2.091,2.9,7.254,7.254,0,0,1-4.531,1.278A8.261,8.261,0,0,1,65.9,30.3,4.793,4.793,0,0,1,63.7,27.744a16.084,16.084,0,0,1-.7-5.693V10.2Z" transform="translate(-46.85 -9.962)" fill="#222"/>
      <path id="Path_4" data-name="Path 4" d="M74.9,10.2H87.8v3.834H83.614V30.881H79.083V14.034H75.016V10.2Z" transform="translate(-44.924 -9.962)" fill="#222"/>
      <path id="Path_5" data-name="Path 5" d="M85.7,10.2h4.531v8.365h5V10.2h4.531V30.881H95.227V22.4h-5v8.481H85.7Z" transform="translate(-43.177 -9.962)" fill="#222"/>
      <path id="Path_6" data-name="Path 6" d="M103.558,10.2h4.531l5.925,20.681h-4.647l-1.046-4.3h-5.809l-.929,4.3H97.4Zm3.95,12.9-2.091-8.481L103.442,23.1Z" transform="translate(-41.283 -9.962)" fill="#222"/>
      <path id="Path_7" data-name="Path 7" d="M111.5,10.2h5l5.344,12.78V10.2h3.486V30.881h-4.066l-6.274-14.988V30.881H111.5Z" transform="translate(-39.001 -9.962)" fill="#222"/>
      <path id="Path_8" data-name="Path 8" d="M125,10.2h4.88a12.731,12.731,0,0,1,5.112.813,6.333,6.333,0,0,1,3.137,3.137,13.431,13.431,0,0,1,1.162,6.274,16.748,16.748,0,0,1-.7,5,10.228,10.228,0,0,1-1.859,3.369,5.4,5.4,0,0,1-2.672,1.627,16.169,16.169,0,0,1-3.718.465H125Zm4.531,3.6V27.4h.813a4.722,4.722,0,0,0,2.44-.581,4.138,4.138,0,0,0,1.394-2.091,14.552,14.552,0,0,0,.465-4.415,12.082,12.082,0,0,0-.581-4.066,3.771,3.771,0,0,0-1.394-1.975,4.608,4.608,0,0,0-2.324-.465h-.813Z" transform="translate(-36.816 -9.962)" fill="#222"/>
      <path id="Path_9" data-name="Path 9" d="M151.258,14.764l-3.718,1.394c-.581-1.743-1.51-2.556-2.9-2.556a2.519,2.519,0,0,0-1.627.581,1.866,1.866,0,0,0-.581,1.278,1.656,1.656,0,0,0,.7,1.394,13.45,13.45,0,0,0,2.9,1.394,13.167,13.167,0,0,1,3.137,1.51,5.07,5.07,0,0,1,1.859,1.975,5.66,5.66,0,0,1,.7,2.9,6.392,6.392,0,0,1-1.975,4.764,7.316,7.316,0,0,1-5.344,1.859c-3.718,0-6.158-1.859-7.2-5.693l3.95-1.162c.465,2.091,1.627,3.137,3.369,3.137a2.956,2.956,0,0,0,1.859-.581,2.11,2.11,0,0,0,.7-1.627,2.233,2.233,0,0,0-.465-1.394,7.758,7.758,0,0,0-2.324-1.278,17.769,17.769,0,0,1-3.486-1.51,6.405,6.405,0,0,1-1.975-1.975,6.037,6.037,0,0,1-.813-2.9,6.13,6.13,0,0,1,1.743-4.531A6.5,6.5,0,0,1,144.52,10C148.121,9.885,150.329,11.511,151.258,14.764Z" transform="translate(-34.842 -9.995)" fill="#222"/>
    </g>
  </g>
</svg>
